<mxfile host="app.diagrams.net" modified="2022-04-25T15:00:21.178Z" agent="5.0 (Windows)" etag="viCnPBa8MrUJWkOOOnUc" version="17.4.6" type="github">
  <diagram id="YpL6tdsirGarOxGrvHZS" name="Page-1">
    <mxGraphModel dx="782" dy="432" grid="1" gridSize="10" guides="1" tooltips="1" connect="1" arrows="1" fold="1" page="1" pageScale="1" pageWidth="827" pageHeight="1169" math="0" shadow="0">
      <root>
        <mxCell id="0" />
        <mxCell id="1" parent="0" />
        <mxCell id="9k-vn9W5Mv40hPXmKdOm-7" value="" style="group" vertex="1" connectable="0" parent="1">
          <mxGeometry x="320" y="150" width="140" height="210" as="geometry" />
        </mxCell>
        <mxCell id="zFsvnj5zhCnZn_Wq1NEL-9" value="Item" style="swimlane;fontStyle=0;childLayout=stackLayout;horizontal=1;startSize=30;horizontalStack=0;resizeParent=1;resizeParentMax=0;resizeLast=0;collapsible=1;marginBottom=0;rounded=0;" parent="9k-vn9W5Mv40hPXmKdOm-7" vertex="1">
          <mxGeometry width="140" height="90" as="geometry" />
        </mxCell>
        <mxCell id="zFsvnj5zhCnZn_Wq1NEL-10" value="-name: String" style="text;strokeColor=none;fillColor=none;align=left;verticalAlign=middle;spacingLeft=4;spacingRight=4;overflow=hidden;points=[[0,0.5],[1,0.5]];portConstraint=eastwest;rotatable=0;rounded=0;" parent="zFsvnj5zhCnZn_Wq1NEL-9" vertex="1">
          <mxGeometry y="30" width="140" height="30" as="geometry" />
        </mxCell>
        <mxCell id="zFsvnj5zhCnZn_Wq1NEL-11" value="-description: String" style="text;strokeColor=none;fillColor=none;align=left;verticalAlign=middle;spacingLeft=4;spacingRight=4;overflow=hidden;points=[[0,0.5],[1,0.5]];portConstraint=eastwest;rotatable=0;rounded=0;" parent="zFsvnj5zhCnZn_Wq1NEL-9" vertex="1">
          <mxGeometry y="60" width="140" height="30" as="geometry" />
        </mxCell>
        <mxCell id="9k-vn9W5Mv40hPXmKdOm-6" value="" style="rounded=0;whiteSpace=wrap;html=1;strokeColor=default;" vertex="1" parent="9k-vn9W5Mv40hPXmKdOm-7">
          <mxGeometry y="90" width="140" height="120" as="geometry" />
        </mxCell>
        <mxCell id="9k-vn9W5Mv40hPXmKdOm-9" value="+getName()" style="text;strokeColor=none;fillColor=none;align=left;verticalAlign=middle;spacingLeft=4;spacingRight=4;overflow=hidden;points=[[0,0.5],[1,0.5]];portConstraint=eastwest;rotatable=0;" vertex="1" parent="9k-vn9W5Mv40hPXmKdOm-7">
          <mxGeometry y="90" width="140" height="40" as="geometry" />
        </mxCell>
        <mxCell id="9k-vn9W5Mv40hPXmKdOm-10" value="+setName()" style="text;strokeColor=none;fillColor=none;align=left;verticalAlign=middle;spacingLeft=4;spacingRight=4;overflow=hidden;points=[[0,0.5],[1,0.5]];portConstraint=eastwest;rotatable=0;" vertex="1" parent="9k-vn9W5Mv40hPXmKdOm-7">
          <mxGeometry y="130" width="80" height="30" as="geometry" />
        </mxCell>
      </root>
    </mxGraphModel>
  </diagram>
</mxfile>
